<svg aria-hidden="true" style="position: absolute; width: 0; height: 0; overflow: hidden;" version="1.1" xmlns="http://www.w3.org/2000/svg" xmlns:xlink="http://www.w3.org/1999/xlink">
<defs>
<symbol id="icon-age" viewBox="0 0 32 32">
<path fill="#22c1c1" style="fill: var(--color1, #22c1c1)" d="M28.75 14c0-1.519-1.231-2.75-2.75-2.75v0h-9.25v-1.575c1.723-0.363 2.998-1.87 3-3.675v-0c0-3.362-3.198-5.534-3.334-5.625-0.117-0.079-0.261-0.126-0.416-0.126s-0.299 0.047-0.419 0.128l0.003-0.002c-0.136 0.091-3.334 2.263-3.334 5.625 0.002 1.805 1.277 3.312 2.975 3.671l0.025 0.004v1.575h-9.25c-1.519 0-2.75 1.231-2.75 2.75v0 2.916c0 1.066 0.352 2.1 1 2.947v5.137c0 1.519 1.231 2.75 2.75 2.75v0h18c1.519 0 2.75-1.231 2.75-2.75v0-5.137c0.623-0.807 0.999-1.833 1-2.947v-2.916zM13.75 6c0-1.925 1.5-3.426 2.25-4.055 0.75 0.625 2.25 2.125 2.25 4.055 0 1.243-1.007 2.25-2.25 2.25s-2.25-1.007-2.25-2.25v0zM4.75 14c0-0.69 0.56-1.25 1.25-1.25v0h20c0.69 0 1.25 0.56 1.25 1.25v0 2.916c0 1.79-1.416 3.285-3.157 3.333-0.028 0.001-0.060 0.001-0.093 0.001-1.795 0-3.25-1.455-3.25-3.25 0-0 0-0 0-0v0c0-0.414-0.336-0.75-0.75-0.75s-0.75 0.336-0.75 0.75v0c0 1.795-1.455 3.25-3.25 3.25s-3.25-1.455-3.25-3.25v0c0-0.414-0.336-0.75-0.75-0.75s-0.75 0.336-0.75 0.75v0c0 0 0 0 0 0 0 1.795-1.456 3.251-3.251 3.251-0.032 0-0.065-0-0.097-0.001l0.005 0c-1.74-0.049-3.157-1.544-3.157-3.334v-2.916zM25 26.25h-18c-0.69 0-1.25-0.56-1.25-1.25v0-3.836c0.61 0.348 1.336 0.563 2.11 0.586l0.007 0c0.042 0.001 0.092 0.002 0.142 0.002 1.287 0 2.453-0.514 3.305-1.348l-0.001 0.001c0.26-0.254 0.49-0.537 0.687-0.843 0.858 1.324 2.328 2.188 4 2.188s3.142-0.864 3.989-2.17l0.011-0.019c0.198 0.306 0.43 0.589 0.69 0.843 0.85 0.832 2.014 1.345 3.298 1.345 0.004 0 0.008 0 0.013-0h0.133c0.781-0.023 1.507-0.238 2.139-0.598l-0.023 0.012v3.836c0 0.69-0.56 1.25-1.25 1.25v0z"></path>
</symbol>
<symbol id="icon-eating" viewBox="0 0 32 32">
<path fill="#f21e84" style="fill: var(--color2, #f21e84)" opacity="0.15" d="M32 16c0 8.837-7.163 16-16 16s-16-7.163-16-16c0-8.837 7.163-16 16-16s16 7.163 16 16z"></path>
<path fill="#f21e84" style="fill: var(--color2, #f21e84)" d="M22 14.625h-0.639c-0.212-2.794-2.531-4.98-5.361-4.98s-5.149 2.187-5.359 4.962l-0.001 0.018h-0.639c-0.207 0-0.375 0.168-0.375 0.375v0c0.005 2.471 1.41 4.613 3.464 5.675l0.036 0.017v0.308c0 0.483 0.392 0.875 0.875 0.875v0h4c0.483 0 0.875-0.392 0.875-0.875v0-0.308c2.090-1.078 3.495-3.22 3.5-5.691v-0.001c0-0.207-0.168-0.375-0.375-0.375v0zM18.89 11.393c0.181 0.145 0.352 0.304 0.509 0.475-1.424 0.453-2.566 1.443-3.208 2.726l-0.014 0.031h-2.094c0.609-1.896 2.354-3.245 4.415-3.25h0.001c0.13 0 0.261 0.007 0.39 0.018zM19.894 12.508c0.392 0.601 0.65 1.323 0.714 2.1l0.001 0.017h-3.579c0.632-1.045 1.64-1.809 2.832-2.11l0.032-0.007zM16 10.375c0.002 0 0.005 0 0.008 0 0.6 0 1.173 0.115 1.699 0.323l-0.031-0.011c-2.123 0.344-3.811 1.887-4.362 3.9l-0.009 0.038h-1.913c0.203-2.386 2.188-4.247 4.609-4.25h0zM18.344 20.115c-0.13 0.061-0.219 0.19-0.219 0.341 0 0 0 0 0 0v-0 0.544c0 0.069-0.056 0.125-0.125 0.125v0h-4c-0.069 0-0.125-0.056-0.125-0.125v0-0.544c0-0 0-0 0-0 0-0.151-0.089-0.28-0.217-0.34l-0.002-0.001c-1.838-0.862-3.119-2.635-3.267-4.722l-0.001-0.018h11.225c-0.149 2.105-1.431 3.878-3.234 4.725l-0.035 0.015z"></path>
</symbol>
<symbol id="icon-exercise" viewBox="0 0 32 32">
<path fill="#f69134" style="fill: var(--color3, #f69134)" opacity="0.15" d="M32 16c0 8.837-7.163 16-16 16s-16-7.163-16-16c0-8.837 7.163-16 16-16s16 7.163 16 16z"></path>
<path fill="#f69134" style="fill: var(--color3, #f69134)" d="M23.5 15.625h-0.625v-2.125c0-0.483-0.392-0.875-0.875-0.875v0h-1.125v-0.625c0-0.483-0.392-0.875-0.875-0.875v0h-1.5c-0.483 0-0.875 0.392-0.875 0.875v0 3.625h-3.25v-3.625c0-0.483-0.392-0.875-0.875-0.875v0h-1.5c-0.483 0-0.875 0.392-0.875 0.875v0 0.625h-1.125c-0.483 0-0.875 0.392-0.875 0.875v0 2.125h-0.625c-0.207 0-0.375 0.168-0.375 0.375s0.168 0.375 0.375 0.375v0h0.625v2.125c0 0.483 0.392 0.875 0.875 0.875v0h1.125v0.625c0 0.483 0.392 0.875 0.875 0.875v0h1.5c0.483 0 0.875-0.392 0.875-0.875v0-3.625h3.25v3.625c0 0.483 0.392 0.875 0.875 0.875v0h1.5c0.483 0 0.875-0.392 0.875-0.875v0-0.625h1.125c0.483 0 0.875-0.392 0.875-0.875v0-2.125h0.625c0.207 0 0.375-0.168 0.375-0.375s-0.168-0.375-0.375-0.375v0zM10 18.625c-0.069 0-0.125-0.056-0.125-0.125v0-5c0-0.069 0.056-0.125 0.125-0.125v0h1.125v5.25h-1.125zM13.625 20c0 0.069-0.056 0.125-0.125 0.125v0h-1.5c-0.069 0-0.125-0.056-0.125-0.125v0-8c0-0.069 0.056-0.125 0.125-0.125v0h1.5c0.069 0 0.125 0.056 0.125 0.125v0 8zM20.125 20c0 0.069-0.056 0.125-0.125 0.125v0h-1.5c-0.069 0-0.125-0.056-0.125-0.125v0-8c0-0.069 0.056-0.125 0.125-0.125v0h1.5c0.069 0 0.125 0.056 0.125 0.125v0 8zM22.125 18.5c0 0.069-0.056 0.125-0.125 0.125v0h-1.125v-5.25h1.125c0.069 0 0.125 0.056 0.125 0.125v0 5z"></path>
</symbol>
<symbol id="icon-gender" viewBox="0 0 32 32">
<path fill="#f24e1e" style="fill: var(--color4, #f24e1e)" d="M26 3.25h-5c-0.414 0-0.75 0.336-0.75 0.75s0.336 0.75 0.75 0.75v0h3.19l-3.75 3.742c-1.4-1.388-3.327-2.245-5.455-2.245-4.28 0-7.75 3.47-7.75 7.75 0 4.021 3.063 7.327 6.983 7.713l0.032 0.003v2.538h-3.25c-0.414 0-0.75 0.336-0.75 0.75s0.336 0.75 0.75 0.75v0h3.25v3.25c0 0.414 0.336 0.75 0.75 0.75s0.75-0.336 0.75-0.75v0-3.25h3.25c0.414 0 0.75-0.336 0.75-0.75s-0.336-0.75-0.75-0.75v0h-3.25v-2.538c3.943-0.397 6.995-3.699 6.995-7.713 0-1.623-0.499-3.13-1.352-4.375l0.017 0.026 3.84-3.84v3.19c0 0.414 0.336 0.75 0.75 0.75s0.75-0.336 0.75-0.75v0-5c0-0.414-0.336-0.75-0.75-0.75v0zM15 20.25c-3.452 0-6.25-2.798-6.25-6.25s2.798-6.25 6.25-6.25c3.452 0 6.25 2.798 6.25 6.25v0c-0.004 3.45-2.8 6.246-6.25 6.25h-0z"></path>
</symbol>
<symbol id="icon-muscle" viewBox="0 0 32 32">
<path fill="#9747ff" style="fill: var(--color5, #9747ff)" d="M10.44 28h9.154c5.774 0 8.406-4.268 8.406-8.23-0.047-0.982-0.293-1.896-0.698-2.717l0.018 0.040c-0.422-0.86-0.986-1.587-1.67-2.181l-0.008-0.007c-1.387-1.333-3.259-2.168-5.327-2.216l-0.009-0c-1.4 0.080-2.684 0.512-3.785 1.207l0.033-0.019c-1.137 0.717-2.059 1.677-2.709 2.813l-0.021 0.039c1.905 4.246 1.366 3.179 0.829 2.11l-2.444-5.364h1.697c0.503-0.031 0.98-0.232 1.355-0.57s0.628-0.793 0.715-1.292c0.592-0.5 0.965-1.242 0.965-2.072 0-0.036-0.001-0.072-0.002-0.107l0 0.005c0-2.955-3.284-4.438-5.11-4.438-2.493-0.059-3.216 1.763-3.863 3.393l-0.028 0.073c-0.404 1.042-3.938 10.281-3.938 13.087-0 0.009-0 0.019-0 0.029 0 1.772 0.703 3.381 1.846 4.561l-0.002-0.002c1.134 1.147 2.707 1.858 4.446 1.858 0.053 0 0.105-0.001 0.157-0.002l-0.008 0v0.002zM9.43 9.060c0.7-1.763 1.089-2.444 2.33-2.444h0.055c1.195 0 3.52 0.996 3.52 2.824 0.021 0.184-0.007 0.37-0.082 0.539-0.102-0.137-0.223-0.253-0.361-0.347l-0.005-0.003c-0.114-0.082-0.256-0.133-0.409-0.139l-0.001-0h-0.426c-0.415-0.527-1.691-1.462-2.684-1.286l1.040 1.33h1.485l0.215 0.516c0.266 0.637 0.174 0.955 0.088 1.093-0.072 0.115-0.192 0.195-0.332 0.21l-0.002 0h-5.035l0.495 0.65c0.217 0.284 0.506 0.506 0.789 0.675 0.002 0.121 0.030 0.24 0.084 0.35l0.222 0.447v0.002c0.47 0.948 1.56 3.144 2.145 4.316-0.020 0.029-0.040 0.059-0.058 0.089l-2.32 3.793c-0.074 0.12-0.118 0.266-0.118 0.421 0 0.289 0.151 0.543 0.379 0.687l0.003 0.002c0.12 0.075 0.265 0.12 0.421 0.12 0.288 0 0.54-0.153 0.68-0.382l0.002-0.003 2.084-3.41c0.065 0.016 0.14 0.026 0.217 0.027h0.001c0.082-0.003 0.162-0.016 0.24-0.038l2.152 3.569c0.143 0.233 0.397 0.386 0.686 0.386 0.153 0 0.296-0.043 0.418-0.117l-0.004 0.002c0.234-0.144 0.388-0.398 0.388-0.689 0-0.155-0.044-0.3-0.12-0.423l0.002 0.003-2.376-3.94c-0.038-0.063-0.075-0.116-0.116-0.166l0.003 0.003c0.509-0.984 1.236-1.793 2.119-2.385l0.023-0.014c0.858-0.575 1.897-0.948 3.017-1.026l0.020-0.001c1.656 0.045 3.147 0.717 4.251 1.786l-0.002-0.002c1.052 0.906 1.743 2.206 1.842 3.668l0.001 0.016c-0.001 3.293-2.105 6.616-6.803 6.616h-9.154c-0.041 0.001-0.088 0.002-0.137 0.002-1.296 0-2.468-0.525-3.317-1.374v0c-0.854-0.883-1.381-2.089-1.381-3.417 0-0.010 0-0.020 0-0.030v0.002c0-2.13 2.764-9.758 3.826-12.509z"></path>
</symbol>
<symbol id="icon-pregnancy" viewBox="0 0 32 32">
<path fill="#ffc700" style="fill: var(--color6, #ffc700)" d="M11.5 17.25c-0.69 0-1.25-0.56-1.25-1.25s0.56-1.25 1.25-1.25v0c0.69 0 1.25 0.56 1.25 1.25s-0.56 1.25-1.25 1.25v0zM20.5 14.75c-0.69 0-1.25 0.56-1.25 1.25s0.56 1.25 1.25 1.25v0c0.69 0 1.25-0.56 1.25-1.25s-0.56-1.25-1.25-1.25v0zM19.1 20.365c-0.881 0.555-1.952 0.884-3.1 0.884s-2.219-0.329-3.124-0.899l0.024 0.014c-0.113-0.072-0.252-0.115-0.4-0.115-0.414 0-0.75 0.336-0.75 0.75 0 0.266 0.139 0.5 0.347 0.633l0.003 0.002c1.107 0.7 2.455 1.116 3.9 1.116s2.793-0.415 3.93-1.134l-0.030 0.018c0.199-0.137 0.327-0.364 0.327-0.62 0-0.415-0.336-0.751-0.751-0.751-0.139 0-0.268 0.038-0.38 0.103l0.004-0.002zM28.75 16c0 7.042-5.708 12.75-12.75 12.75s-12.75-5.708-12.75-12.75c0-7.042 5.708-12.75 12.75-12.75v0c7.038 0.009 12.741 5.712 12.75 12.749v0.001zM27.25 16c-0.007-6.082-4.833-11.034-10.865-11.243l-0.019-0.001c-1.579 2.148-1.616 4.225-1.616 4.244 0 0.69 0.56 1.25 1.25 1.25s1.25-0.56 1.25-1.25v0c0-0.414 0.336-0.75 0.75-0.75s0.75 0.336 0.75 0.75v0c0 1.519-1.231 2.75-2.75 2.75s-2.75-1.231-2.75-2.75v0c0-0.094 0.019-1.978 1.268-4.152-5.543 0.758-9.768 5.461-9.768 11.152 0 6.213 5.037 11.25 11.25 11.25s11.25-5.037 11.25-11.25v0z"></path>
</symbol>
<symbol id="icon-race" viewBox="0 0 32 32">
<path fill="#f21e84" style="fill: var(--color2, #f21e84)" d="M16 8.75c2.071 0 3.75-1.679 3.75-3.75s-1.679-3.75-3.75-3.75v0c-2.071 0-3.75 1.679-3.75 3.75s1.679 3.75 3.75 3.75v0zM16 2.75c1.243 0 2.25 1.007 2.25 2.25s-1.007 2.25-2.25 2.25v0c-1.243 0-2.25-1.007-2.25-2.25s1.007-2.25 2.25-2.25v0zM27.11 16.927l-5.651-6.407c-0.691-0.78-1.695-1.27-2.813-1.27-0 0-0 0-0 0h-5.292c-0 0-0.001 0-0.001 0-1.118 0-2.121 0.489-2.809 1.265l-0.003 0.004-5.651 6.408c-0.412 0.408-0.667 0.974-0.667 1.599 0 1.243 1.008 2.251 2.251 2.251 0.618 0 1.177-0.249 1.584-0.652l-0 0 2.638-2.116-2.266 8.606c-0.128 0.274-0.203 0.595-0.203 0.934 0 1.243 1.007 2.25 2.25 2.25 0.904 0 1.684-0.533 2.041-1.302l0.006-0.014 3.476-5.983 3.476 5.989c0.363 0.783 1.143 1.316 2.047 1.316 1.243 0 2.25-1.007 2.25-2.25 0-0.339-0.075-0.66-0.209-0.948l0.006 0.014-2.266-8.608 2.639 2.112c0.402 0.38 0.946 0.614 1.544 0.614 1.243 0 2.25-1.007 2.25-2.25 0-0.605-0.239-1.155-0.628-1.56l0.001 0.001v-0.003zM26.031 19.030c-0.136 0.136-0.323 0.22-0.53 0.22s-0.395-0.084-0.53-0.22v0c-0.019-0.020-0.039-0.038-0.060-0.054l-0.001-0.001-4.439-3.56c-0.127-0.103-0.291-0.165-0.47-0.165-0.414 0-0.75 0.336-0.75 0.75 0 0.068 0.009 0.133 0.026 0.195l-0.001-0.005 2.859 10.866c0.015 0.050 0.030 0.091 0.048 0.131l-0.002-0.006c0.044 0.093 0.070 0.202 0.070 0.317 0 0.414-0.336 0.75-0.75 0.75-0.299 0-0.558-0.175-0.678-0.429l-0.002-0.005c-0.011-0.024-0.021-0.043-0.032-0.062l0.001 0.002-4.14-7.13c-0.132-0.225-0.373-0.374-0.649-0.374s-0.517 0.149-0.647 0.371l-0.002 0.004-4.14 7.131c-0.010 0.017-0.021 0.036-0.030 0.057l-0.001 0.003c-0.122 0.258-0.381 0.434-0.68 0.434-0.414 0-0.75-0.336-0.75-0.75 0-0.115 0.026-0.224 0.072-0.321l-0.002 0.005c0.016-0.034 0.032-0.076 0.044-0.118l0.002-0.007 2.859-10.867c0.015-0.056 0.024-0.121 0.024-0.188 0-0.262-0.134-0.492-0.337-0.626l-0.003-0.002c-0.115-0.077-0.257-0.123-0.409-0.125h-0c-0 0-0 0-0.001 0-0.178 0-0.342 0.062-0.471 0.166l0.001-0.001-4.439 3.56c-0.022 0.017-0.042 0.035-0.061 0.055l-0 0c-0.136 0.136-0.323 0.22-0.53 0.22-0.414 0-0.75-0.336-0.75-0.75 0-0.207 0.084-0.395 0.22-0.53v0l0.031-0.034 5.665-6.424c0.414-0.468 1.016-0.761 1.687-0.761 0 0 0.001 0 0.001 0h5.292c0 0 0.001 0 0.001 0 0.671 0 1.273 0.293 1.685 0.759l0.002 0.002 5.699 6.458c0.136 0.136 0.221 0.323 0.221 0.53s-0.084 0.395-0.221 0.53l-0 0z"></path>
</symbol>
<symbol id="icon-sleep" viewBox="0 0 32 32">
<path fill="#22c1c1" style="fill: var(--color1, #22c1c1)" opacity="0.15" d="M32 16c0 8.837-7.163 16-16 16s-16-7.163-16-16c0-8.837 7.163-16 16-16s16 7.163 16 16z"></path>
<path fill="#22c1c1" style="fill: var(--color1, #22c1c1)" d="M22.875 14c0 0.207-0.168 0.375-0.375 0.375v0h-1.125v1.125c0 0.207-0.168 0.375-0.375 0.375s-0.375-0.168-0.375-0.375v0-1.125h-1.125c-0.207 0-0.375-0.168-0.375-0.375s0.168-0.375 0.375-0.375v0h1.125v-1.125c0-0.207 0.168-0.375 0.375-0.375s0.375 0.168 0.375 0.375v0 1.125h1.125c0.207 0 0.375 0.168 0.375 0.375v0zM17 11.375h0.625v0.625c0 0.207 0.168 0.375 0.375 0.375s0.375-0.168 0.375-0.375v0-0.625h0.625c0.207 0 0.375-0.168 0.375-0.375s-0.168-0.375-0.375-0.375v0h-0.625v-0.625c0-0.207-0.168-0.375-0.375-0.375s-0.375 0.168-0.375 0.375v0 0.625h-0.625c-0.207 0-0.375 0.168-0.375 0.375s0.168 0.375 0.375 0.375v0zM21.453 17.642c0.056 0.065 0.090 0.151 0.090 0.244 0 0.047-0.009 0.092-0.024 0.133l0.001-0.003c-0.848 2.27-2.997 3.856-5.518 3.856-3.245 0-5.875-2.631-5.875-5.875 0-2.521 1.588-4.671 3.818-5.505l0.041-0.013c0.038-0.014 0.082-0.023 0.128-0.023 0.207 0 0.375 0.168 0.375 0.375 0 0.025-0.003 0.050-0.007 0.074l0-0.002c-0.068 0.328-0.107 0.704-0.107 1.090 0 3.11 2.521 5.631 5.631 5.631 0.386 0 0.763-0.039 1.127-0.113l-0.036 0.006c0.022-0.005 0.047-0.007 0.073-0.007 0.113 0 0.215 0.050 0.284 0.13l0 0zM20.555 18.352c-0.164 0.015-0.355 0.024-0.548 0.024-3.525 0-6.383-2.858-6.383-6.383 0-0.193 0.009-0.383 0.025-0.572l-0.002 0.024c-1.66 0.87-2.773 2.582-2.773 4.553 0 2.262 1.466 4.182 3.5 4.861l0.036 0.010c0.475 0.161 1.022 0.253 1.591 0.253 1.971 0 3.681-1.112 4.539-2.743l0.013-0.028z"></path>
</symbol>
</defs>
</svg>
